name p8_grf_mean_speed_1.4
datacolumns 13
datarows 51
range 0.0000000000 0.5000000000
endheader
time	grf_x_l_mean	grf_x_l_var	grf_y_l_mean	grf_y_l_var	grf_z_l_mean	grf_z_l_var	grf_x_r_mean	grf_x_r_var	grf_y_r_mean	grf_y_r_var	grf_z_r_mean	grf_z_r_var
0.0000000000	149.3714296134	1.0000000000	664.4997158777	1.0000000000	0.0000000000	0.0000000000	4.7230924948	1.0000000000	11.2618771176	1.0000000000	0.0000000000	0.0000000000
0.0100000000	159.3073365268	1.0000000000	646.7341153721	1.0000000000	0.0000000000	0.0000000000	4.6734775693	1.0000000000	49.1199580366	1.0000000000	0.0000000000	0.0000000000
0.0200000000	166.6530954729	1.0000000000	618.2426717591	1.0000000000	0.0000000000	0.0000000000	1.0452124107	1.0000000000	111.4944297024	1.0000000000	0.0000000000	0.0000000000
0.0300000000	170.0723853222	1.0000000000	577.6675275151	1.0000000000	0.0000000000	0.0000000000	-10.0618328592	1.0000000000	195.5710543299	1.0000000000	0.0000000000	0.0000000000
0.0400000000	166.9076217333	1.0000000000	523.7157138871	1.0000000000	0.0000000000	0.0000000000	-30.2466665148	1.0000000000	291.6454961820	1.0000000000	0.0000000000	0.0000000000
0.0500000000	155.6766316017	1.0000000000	456.4526385712	1.0000000000	0.0000000000	0.0000000000	-54.6775097179	1.0000000000	387.7117646834	1.0000000000	0.0000000000	0.0000000000
0.0600000000	136.3995988308	1.0000000000	378.8605306199	1.0000000000	0.0000000000	0.0000000000	-78.4488660966	1.0000000000	474.8781747852	1.0000000000	0.0000000000	0.0000000000
0.0700000000	109.1290488262	1.0000000000	297.0952448197	1.0000000000	0.0000000000	0.0000000000	-99.4402827902	1.0000000000	548.8498062183	1.0000000000	0.0000000000	0.0000000000
0.0800000000	78.2879956404	1.0000000000	218.7295147308	1.0000000000	0.0000000000	0.0000000000	-116.8266486439	1.0000000000	610.2720504770	1.0000000000	0.0000000000	0.0000000000
0.0900000000	49.6130466539	1.0000000000	150.7871919816	1.0000000000	0.0000000000	0.0000000000	-129.8337268222	1.0000000000	662.6689948351	1.0000000000	0.0000000000	0.0000000000
0.1000000000	27.0315732362	1.0000000000	97.2075876537	1.0000000000	0.0000000000	0.0000000000	-138.9553063456	1.0000000000	708.1876287058	1.0000000000	0.0000000000	0.0000000000
0.1100000000	11.8969699262	1.0000000000	57.9113000869	1.0000000000	0.0000000000	0.0000000000	-144.0109414781	1.0000000000	746.3277716985	1.0000000000	0.0000000000	0.0000000000
0.1200000000	3.3306753737	1.0000000000	30.8887609539	1.0000000000	0.0000000000	0.0000000000	-144.1617514599	1.0000000000	775.5005499148	1.0000000000	0.0000000000	0.0000000000
0.1300000000	-1.0026031136	1.0000000000	13.7922787811	1.0000000000	0.0000000000	0.0000000000	-140.3490246271	1.0000000000	795.1542057247	1.0000000000	0.0000000000	0.0000000000
0.1400000000	-2.7233244158	1.0000000000	4.2675779221	1.0000000000	0.0000000000	0.0000000000	-133.6257730390	1.0000000000	805.7934719300	1.0000000000	0.0000000000	0.0000000000
0.1500000000	0.0000000000	1.0000000000	0.0000000000	1.0000000000	0.0000000000	0.0000000000	-124.1608682718	1.0000000000	807.7562404909	1.0000000000	0.0000000000	0.0000000000
0.1600000000	0.0000000000	1.0000000000	0.0000000000	1.0000000000	0.0000000000	0.0000000000	-113.0772045892	1.0000000000	801.7067210695	1.0000000000	0.0000000000	0.0000000000
0.1700000000	0.0000000000	1.0000000000	0.0000000000	1.0000000000	0.0000000000	0.0000000000	-101.4577414348	1.0000000000	788.6366768047	1.0000000000	0.0000000000	0.0000000000
0.1800000000	0.0000000000	1.0000000000	0.0000000000	1.0000000000	0.0000000000	0.0000000000	-89.3655562122	1.0000000000	769.4605240024	1.0000000000	0.0000000000	0.0000000000
0.1900000000	0.0000000000	1.0000000000	0.0000000000	1.0000000000	0.0000000000	0.0000000000	-77.5370612728	1.0000000000	744.9409438951	1.0000000000	0.0000000000	0.0000000000
0.2000000000	0.0000000000	1.0000000000	0.0000000000	1.0000000000	0.0000000000	0.0000000000	-66.4797834693	1.0000000000	715.8800008165	1.0000000000	0.0000000000	0.0000000000
0.2100000000	-0.0055751042	1.0000000000	0.0789728405	1.0000000000	0.0000000000	0.0000000000	-56.1331236642	1.0000000000	683.5418287769	1.0000000000	0.0000000000	0.0000000000
0.2200000000	-0.0403823272	1.0000000000	0.0949334600	1.0000000000	0.0000000000	0.0000000000	-46.6551959805	1.0000000000	649.5133889681	1.0000000000	0.0000000000	0.0000000000
0.2300000000	-0.0288987791	1.0000000000	0.0794499621	1.0000000000	0.0000000000	0.0000000000	-38.5185524735	1.0000000000	615.4873972480	1.0000000000	0.0000000000	0.0000000000
0.2400000000	0.0598904548	1.0000000000	0.0882017016	1.0000000000	0.0000000000	0.0000000000	-31.2267061214	1.0000000000	583.1035436355	1.0000000000	0.0000000000	0.0000000000
0.2500000000	0.0930564705	1.0000000000	0.1187285722	1.0000000000	0.0000000000	0.0000000000	-24.7543258722	1.0000000000	553.6622485238	1.0000000000	0.0000000000	0.0000000000
0.2600000000	-0.0650265825	1.0000000000	0.1195152984	1.0000000000	0.0000000000	0.0000000000	-19.1811180172	1.0000000000	527.7634563572	1.0000000000	0.0000000000	0.0000000000
0.2700000000	-0.1872840624	1.0000000000	0.0826818873	1.0000000000	0.0000000000	0.0000000000	-14.2029333933	1.0000000000	505.9500035486	1.0000000000	0.0000000000	0.0000000000
0.2800000000	-0.2015116232	1.0000000000	0.0351076976	1.0000000000	0.0000000000	0.0000000000	-9.6404198687	1.0000000000	488.8676156081	1.0000000000	0.0000000000	0.0000000000
0.2900000000	0.0000000000	1.0000000000	0.0000000000	1.0000000000	0.0000000000	0.0000000000	-5.5459128327	1.0000000000	476.3616719094	1.0000000000	0.0000000000	0.0000000000
0.3000000000	0.0000000000	1.0000000000	0.0000000000	1.0000000000	0.0000000000	0.0000000000	-1.5385779860	1.0000000000	467.8490868611	1.0000000000	0.0000000000	0.0000000000
0.3100000000	0.0000000000	1.0000000000	0.0000000000	1.0000000000	0.0000000000	0.0000000000	2.4034417052	1.0000000000	463.2796983982	1.0000000000	0.0000000000	0.0000000000
0.3200000000	0.0000000000	1.0000000000	0.0000000000	1.0000000000	0.0000000000	0.0000000000	6.2587038573	1.0000000000	462.6638224456	1.0000000000	0.0000000000	0.0000000000
0.3300000000	0.0000000000	1.0000000000	0.0000000000	1.0000000000	0.0000000000	0.0000000000	10.2932446566	1.0000000000	465.4041330427	1.0000000000	0.0000000000	0.0000000000
0.3400000000	0.0000000000	1.0000000000	0.0000000000	1.0000000000	0.0000000000	0.0000000000	14.6640271676	1.0000000000	470.8857937086	1.0000000000	0.0000000000	0.0000000000
0.3500000000	0.0000000000	1.0000000000	0.0000000000	1.0000000000	0.0000000000	0.0000000000	19.1796019893	1.0000000000	478.8915467856	1.0000000000	0.0000000000	0.0000000000
0.3600000000	0.0000000000	1.0000000000	0.0000000000	1.0000000000	0.0000000000	0.0000000000	24.0838552693	1.0000000000	489.2867817886	1.0000000000	0.0000000000	0.0000000000
0.3700000000	-0.0233332977	1.0000000000	0.0578910515	1.0000000000	0.0000000000	0.0000000000	29.4528084824	1.0000000000	501.8972246799	1.0000000000	0.0000000000	0.0000000000
0.3800000000	-0.0548835752	1.0000000000	0.1745952167	1.0000000000	0.0000000000	0.0000000000	35.2218624204	1.0000000000	516.4394693756	1.0000000000	0.0000000000	0.0000000000
0.3900000000	-0.1019878609	1.0000000000	0.3404726681	1.0000000000	0.0000000000	0.0000000000	41.6781457302	1.0000000000	532.4661537161	1.0000000000	0.0000000000	0.0000000000
0.4000000000	-0.1309408847	1.0000000000	0.5037797967	1.0000000000	0.0000000000	0.0000000000	49.0186458518	1.0000000000	549.5816327801	1.0000000000	0.0000000000	0.0000000000
0.4100000000	-0.1507344948	1.0000000000	0.5469771408	1.0000000000	0.0000000000	0.0000000000	57.2164071103	1.0000000000	567.5331810182	1.0000000000	0.0000000000	0.0000000000
0.4200000000	-0.1546485395	1.0000000000	0.2616556942	1.0000000000	0.0000000000	0.0000000000	66.3829890802	1.0000000000	585.7959380456	1.0000000000	0.0000000000	0.0000000000
0.4300000000	0.0000000000	1.0000000000	0.0000000000	1.0000000000	0.0000000000	0.0000000000	76.5432532593	1.0000000000	603.4824216861	1.0000000000	0.0000000000	0.0000000000
0.4400000000	0.0000000000	1.0000000000	0.0000000000	1.0000000000	0.0000000000	0.0000000000	87.4906241392	1.0000000000	619.8323796117	1.0000000000	0.0000000000	0.0000000000
0.4500000000	0.0000000000	1.0000000000	0.0000000000	1.0000000000	0.0000000000	0.0000000000	99.2772159619	1.0000000000	634.2381887220	1.0000000000	0.0000000000	0.0000000000
0.4600000000	0.0000000000	1.0000000000	0.0000000000	1.0000000000	0.0000000000	0.0000000000	111.8253857387	1.0000000000	645.7613546690	1.0000000000	0.0000000000	0.0000000000
0.4700000000	0.0000000000	1.0000000000	0.0000000000	1.0000000000	0.0000000000	0.0000000000	124.7654986381	1.0000000000	653.0462222636	1.0000000000	0.0000000000	0.0000000000
0.4800000000	0.0000000000	1.0000000000	0.0000000000	1.0000000000	0.0000000000	0.0000000000	137.9520807074	1.0000000000	654.6637287627	1.0000000000	0.0000000000	0.0000000000
0.4900000000	0.0000000000	1.0000000000	0.0000000000	1.0000000000	0.0000000000	0.0000000000	150.9767040040	1.0000000000	649.1819140918	1.0000000000	0.0000000000	0.0000000000
0.5000000000	0.5713074402	1.0000000000	29.2767711149	1.0000000000	0.0000000000	0.0000000000	162.8464175633	1.0000000000	635.0185837934	1.0000000000	0.0000000000	0.0000000000
